<svg xmlns="http://www.w3.org/2000/svg" xmlns:xlink="http://www.w3.org/1999/xlink" width="1080" zoomAndPan="magnify" viewBox="0 0 810 809.999993" height="1080" preserveAspectRatio="xMidYMid meet" version="1.0"><defs><clipPath id="3f1d4b8c60"><path d="M 346 510.4375 L 406 510.4375 L 406 568 L 346 568 Z M 346 510.4375 " clip-rule="nonzero"/></clipPath><clipPath id="ba8d5fb1db"><path d="M 222.605469 549 L 277 549 L 277 552 L 222.605469 552 Z M 222.605469 549 " clip-rule="nonzero"/></clipPath><clipPath id="43ff8a3d6a"><path d="M 564 547.261719 L 587.105469 547.261719 L 587.105469 593.160156 L 564 593.160156 Z M 564 547.261719 " clip-rule="nonzero"/></clipPath><clipPath id="2bd2a6b5d7"><path d="M 319.746094 747.476562 L 379.492188 747.476562 L 379.492188 771.4375 L 319.746094 771.4375 Z M 319.746094 747.476562 " clip-rule="nonzero"/></clipPath><clipPath id="074abc948c"><path d="M 362.476562 718.195312 L 408.773438 718.195312 L 408.773438 771.4375 L 362.476562 771.4375 Z M 362.476562 718.195312 " clip-rule="nonzero"/></clipPath><clipPath id="71550b8141"><path d="M 295.210938 745.5 L 341 745.5 L 341 771.4375 L 295.210938 771.4375 Z M 295.210938 745.5 " clip-rule="nonzero"/></clipPath><clipPath id="96b06f6b35"><path d="M 336.757812 749.058594 L 362 749.058594 L 362 771.4375 L 336.757812 771.4375 Z M 336.757812 749.058594 " clip-rule="nonzero"/></clipPath><clipPath id="5a4cccc467"><path d="M 250.894531 724.132812 L 274.242188 724.132812 L 274.242188 771.4375 L 250.894531 771.4375 Z M 250.894531 724.132812 " clip-rule="nonzero"/></clipPath><clipPath id="8ff986ab00"><path d="M 268.304688 718.195312 L 295.605469 718.195312 L 295.605469 771.4375 L 268.304688 771.4375 Z M 268.304688 718.195312 " clip-rule="nonzero"/></clipPath><clipPath id="6d5d076c4b"><path d="M 222.605469 698 L 277 698 L 277 702 L 222.605469 702 Z M 222.605469 698 " clip-rule="nonzero"/></clipPath><clipPath id="d79fb06808"><path d="M 251.289062 751.433594 L 263.558594 751.433594 L 263.558594 771.4375 L 251.289062 771.4375 Z M 251.289062 751.433594 " clip-rule="nonzero"/></clipPath><clipPath id="647fdca6b3"><path d="M 571.796875 661.613281 L 587.105469 661.613281 L 587.105469 696 L 571.796875 696 Z M 571.796875 661.613281 " clip-rule="nonzero"/></clipPath><clipPath id="7024662eaa"><path d="M 525.894531 715.824219 L 587.105469 715.824219 L 587.105469 722.945312 L 525.894531 722.945312 Z M 525.894531 715.824219 " clip-rule="nonzero"/></clipPath><clipPath id="d53c11fd1b"><path d="M 567.839844 708 L 587.105469 708 L 587.105469 741.9375 L 567.839844 741.9375 Z M 567.839844 708 " clip-rule="nonzero"/></clipPath><clipPath id="477ae5bd3a"><path d="M 480 729.671875 L 502 729.671875 L 502 771.4375 L 480 771.4375 Z M 480 729.671875 " clip-rule="nonzero"/></clipPath><clipPath id="c2d34e4972"><path d="M 522.730469 738.375 L 533.414062 738.375 L 533.414062 771.4375 L 522.730469 771.4375 Z M 522.730469 738.375 " clip-rule="nonzero"/></clipPath><clipPath id="90f5880d18"><path d="M 538.558594 762.511719 L 553.59375 762.511719 L 553.59375 771.4375 L 538.558594 771.4375 Z M 538.558594 762.511719 " clip-rule="nonzero"/></clipPath><clipPath id="741860894a"><path d="M 542.117188 749.851562 L 574 749.851562 L 574 771.4375 L 542.117188 771.4375 Z M 542.117188 749.851562 " clip-rule="nonzero"/></clipPath><clipPath id="9ac48047a4"><path d="M 346 269.753906 L 406 269.753906 L 406 327 L 346 327 Z M 346 269.753906 " clip-rule="nonzero"/></clipPath><clipPath id="fc9fefc89b"><path d="M 222.605469 308 L 277 308 L 277 312 L 222.605469 312 Z M 222.605469 308 " clip-rule="nonzero"/></clipPath><clipPath id="ef0c7ea07e"><path d="M 564 306.578125 L 587.105469 306.578125 L 587.105469 352.476562 L 564 352.476562 Z M 564 306.578125 " clip-rule="nonzero"/></clipPath><clipPath id="0b4061241d"><path d="M 319.746094 506.792969 L 379.492188 506.792969 L 379.492188 530.753906 L 319.746094 530.753906 Z M 319.746094 506.792969 " clip-rule="nonzero"/></clipPath><clipPath id="ea6a4f0871"><path d="M 362.476562 477.515625 L 408.773438 477.515625 L 408.773438 530.753906 L 362.476562 530.753906 Z M 362.476562 477.515625 " clip-rule="nonzero"/></clipPath><clipPath id="bb6f7f8fd1"><path d="M 295.210938 504.816406 L 341 504.816406 L 341 530.753906 L 295.210938 530.753906 Z M 295.210938 504.816406 " clip-rule="nonzero"/></clipPath><clipPath id="ebf556b29b"><path d="M 336.757812 508.378906 L 362 508.378906 L 362 530.753906 L 336.757812 530.753906 Z M 336.757812 508.378906 " clip-rule="nonzero"/></clipPath><clipPath id="0176d4a77c"><path d="M 250.894531 483.449219 L 274.242188 483.449219 L 274.242188 530.753906 L 250.894531 530.753906 Z M 250.894531 483.449219 " clip-rule="nonzero"/></clipPath><clipPath id="43650afc88"><path d="M 268.304688 477.515625 L 295.605469 477.515625 L 295.605469 530.753906 L 268.304688 530.753906 Z M 268.304688 477.515625 " clip-rule="nonzero"/></clipPath><clipPath id="741aa217f7"><path d="M 222.605469 458 L 277 458 L 277 462 L 222.605469 462 Z M 222.605469 458 " clip-rule="nonzero"/></clipPath><clipPath id="88ec5e332f"><path d="M 251.289062 510.75 L 263.558594 510.75 L 263.558594 530.753906 L 251.289062 530.753906 Z M 251.289062 510.75 " clip-rule="nonzero"/></clipPath><clipPath id="93d00e0641"><path d="M 571.796875 421 L 587.105469 421 L 587.105469 455.355469 L 571.796875 455.355469 Z M 571.796875 421 " clip-rule="nonzero"/></clipPath><clipPath id="4282b3c03e"><path d="M 525.894531 475.140625 L 587.105469 475.140625 L 587.105469 482.261719 L 525.894531 482.261719 Z M 525.894531 475.140625 " clip-rule="nonzero"/></clipPath><clipPath id="48e4a28185"><path d="M 567.839844 467.226562 L 587.105469 467.226562 L 587.105469 501.253906 L 567.839844 501.253906 Z M 567.839844 467.226562 " clip-rule="nonzero"/></clipPath><clipPath id="be96e8bc2a"><path d="M 480 489 L 502 489 L 502 530.753906 L 480 530.753906 Z M 480 489 " clip-rule="nonzero"/></clipPath><clipPath id="51aaf7ba4c"><path d="M 522.730469 497.695312 L 533.414062 497.695312 L 533.414062 530.753906 L 522.730469 530.753906 Z M 522.730469 497.695312 " clip-rule="nonzero"/></clipPath><clipPath id="4723835915"><path d="M 538.558594 521.832031 L 553.59375 521.832031 L 553.59375 530.753906 L 538.558594 530.753906 Z M 538.558594 521.832031 " clip-rule="nonzero"/></clipPath><clipPath id="fd56d43ae6"><path d="M 542.117188 509.167969 L 574 509.167969 L 574 530.753906 L 542.117188 530.753906 Z M 542.117188 509.167969 " clip-rule="nonzero"/></clipPath><clipPath id="8dabc9f58c"><path d="M 346 38.28125 L 406 38.28125 L 406 96 L 346 96 Z M 346 38.28125 " clip-rule="nonzero"/></clipPath><clipPath id="c79b836fda"><path d="M 222.605469 76 L 277 76 L 277 80 L 222.605469 80 Z M 222.605469 76 " clip-rule="nonzero"/></clipPath><clipPath id="a922984457"><path d="M 564 75.105469 L 587.105469 75.105469 L 587.105469 121 L 564 121 Z M 564 75.105469 " clip-rule="nonzero"/></clipPath><clipPath id="963013cb24"><path d="M 319.746094 275.320312 L 379.492188 275.320312 L 379.492188 299.28125 L 319.746094 299.28125 Z M 319.746094 275.320312 " clip-rule="nonzero"/></clipPath><clipPath id="15e8440338"><path d="M 362.476562 246.039062 L 408.773438 246.039062 L 408.773438 299.28125 L 362.476562 299.28125 Z M 362.476562 246.039062 " clip-rule="nonzero"/></clipPath><clipPath id="af680b5f67"><path d="M 295.210938 273.339844 L 341 273.339844 L 341 299.28125 L 295.210938 299.28125 Z M 295.210938 273.339844 " clip-rule="nonzero"/></clipPath><clipPath id="fe35e14a31"><path d="M 336.757812 277 L 362 277 L 362 299.28125 L 336.757812 299.28125 Z M 336.757812 277 " clip-rule="nonzero"/></clipPath><clipPath id="8eb535a409"><path d="M 250.894531 252 L 274.242188 252 L 274.242188 299.28125 L 250.894531 299.28125 Z M 250.894531 252 " clip-rule="nonzero"/></clipPath><clipPath id="9e2b652877"><path d="M 268.304688 246.039062 L 295.605469 246.039062 L 295.605469 299.28125 L 268.304688 299.28125 Z M 268.304688 246.039062 " clip-rule="nonzero"/></clipPath><clipPath id="0deba6a744"><path d="M 222.605469 226 L 277 226 L 277 230 L 222.605469 230 Z M 222.605469 226 " clip-rule="nonzero"/></clipPath><clipPath id="595511bc85"><path d="M 251.289062 279.277344 L 263.558594 279.277344 L 263.558594 299.28125 L 251.289062 299.28125 Z M 251.289062 279.277344 " clip-rule="nonzero"/></clipPath><clipPath id="4a912f15c3"><path d="M 571.796875 189.457031 L 587.105469 189.457031 L 587.105469 223.882812 L 571.796875 223.882812 Z M 571.796875 189.457031 " clip-rule="nonzero"/></clipPath><clipPath id="d7087c74b2"><path d="M 525.894531 243.664062 L 587.105469 243.664062 L 587.105469 250.789062 L 525.894531 250.789062 Z M 525.894531 243.664062 " clip-rule="nonzero"/></clipPath><clipPath id="9edf6eab47"><path d="M 567.839844 236 L 587.105469 236 L 587.105469 269.78125 L 567.839844 269.78125 Z M 567.839844 236 " clip-rule="nonzero"/></clipPath><clipPath id="ab1a33673a"><path d="M 480 257.515625 L 502 257.515625 L 502 299.28125 L 480 299.28125 Z M 480 257.515625 " clip-rule="nonzero"/></clipPath><clipPath id="5d92916c9d"><path d="M 522.730469 266.21875 L 533.414062 266.21875 L 533.414062 299.28125 L 522.730469 299.28125 Z M 522.730469 266.21875 " clip-rule="nonzero"/></clipPath><clipPath id="c114454942"><path d="M 538.558594 290.355469 L 553.59375 290.355469 L 553.59375 299.28125 L 538.558594 299.28125 Z M 538.558594 290.355469 " clip-rule="nonzero"/></clipPath><clipPath id="caf72c078e"><path d="M 542.117188 277.695312 L 574 277.695312 L 574 299.28125 L 542.117188 299.28125 Z M 542.117188 277.695312 " clip-rule="nonzero"/></clipPath></defs><rect x="-81" width="972" fill="#ffffff" y="-80.999999" height="971.999992" fill-opacity="1"/><rect x="-81" width="972" fill="#000000" y="-80.999999" height="971.999992" fill-opacity="1"/><path fill="#ffb300" d="M 337.574219 569.808594 L 327.699219 583.949219 L 329.003906 584.859375 L 338.878906 570.71875 L 337.574219 569.808594 " fill-opacity="1" fill-rule="nonzero"/><path fill="#ffb300" d="M 355.886719 574.382812 L 344.210938 515.269531 L 342.644531 515.585938 L 354.324219 574.695312 L 355.886719 574.382812 " fill-opacity="1" fill-rule="nonzero"/><path fill="#ffb300" d="M 336.910156 533.628906 L 318.128906 572.433594 L 319.558594 573.121094 L 338.339844 534.320312 L 336.910156 533.628906 " fill-opacity="1" fill-rule="nonzero"/><g clip-path="url(#3f1d4b8c60)"><path fill="#ffb300" d="M 404.15625 510.585938 L 346.058594 566.449219 L 347.15625 567.601562 L 405.257812 511.734375 L 404.15625 510.585938 " fill-opacity="1" fill-rule="nonzero"/></g><path fill="#ffb300" d="M 386.761719 515.175781 L 390.816406 554.421875 L 392.402344 554.253906 L 388.351562 515.007812 L 386.761719 515.175781 " fill-opacity="1" fill-rule="nonzero"/><path fill="#ffb300" d="M 361.429688 535.710938 L 403.394531 576.269531 L 404.503906 575.128906 L 362.542969 534.574219 L 361.429688 535.710938 " fill-opacity="1" fill-rule="nonzero"/><path fill="#ffb300" d="M 422.136719 605.363281 L 372.429688 612.949219 L 372.667969 614.523438 L 422.375 606.9375 L 422.136719 605.363281 " fill-opacity="1" fill-rule="nonzero"/><path fill="#ffb300" d="M 374.605469 637.730469 L 317.871094 601.59375 L 317.011719 602.945312 L 373.746094 639.078125 L 374.605469 637.730469 " fill-opacity="1" fill-rule="nonzero"/><path fill="#ffb300" d="M 404.070312 637.515625 L 362.847656 574.984375 L 361.523438 575.867188 L 402.742188 638.394531 L 404.070312 637.515625 " fill-opacity="1" fill-rule="nonzero"/><path fill="#ffb300" d="M 337.160156 600.609375 L 290.746094 634.25 L 291.679688 635.535156 L 338.089844 601.890625 L 337.160156 600.609375 " fill-opacity="1" fill-rule="nonzero"/><path fill="#ffb300" d="M 357.875 605.40625 L 332.722656 627.40625 L 333.777344 628.601562 L 358.929688 606.609375 L 357.875 605.40625 " fill-opacity="1" fill-rule="nonzero"/><path fill="#ffb300" d="M 358.839844 594.992188 L 315.515625 583.503906 L 315.105469 585.035156 L 358.4375 596.523438 L 358.839844 594.992188 " fill-opacity="1" fill-rule="nonzero"/><path fill="#ffb300" d="M 269.84375 630.796875 L 226.101562 573.421875 L 224.839844 574.382812 L 268.582031 631.765625 L 269.84375 630.796875 " fill-opacity="1" fill-rule="nonzero"/><path fill="#ffb300" d="M 291.359375 624.4375 L 268.875 569.570312 L 267.402344 570.167969 L 289.886719 625.039062 L 291.359375 624.4375 " fill-opacity="1" fill-rule="nonzero"/><path fill="#ffb300" d="M 320.6875 546.921875 L 293.917969 568.128906 L 294.902344 569.371094 L 321.671875 548.160156 L 320.6875 546.921875 " fill-opacity="1" fill-rule="nonzero"/><path fill="#ffb300" d="M 252.800781 540.585938 L 301.050781 596.667969 L 302.253906 595.632812 L 254.003906 539.542969 L 252.800781 540.585938 " fill-opacity="1" fill-rule="nonzero"/><path fill="#ffb300" d="M 384.636719 589.367188 L 377.996094 564.007812 L 376.449219 564.410156 L 383.09375 589.773438 L 384.636719 589.367188 " fill-opacity="1" fill-rule="nonzero"/><path fill="#ffb300" d="M 346.007812 558.554688 L 302.585938 554.007812 L 302.421875 555.589844 L 345.84375 560.140625 L 346.007812 558.554688 " fill-opacity="1" fill-rule="nonzero"/><g clip-path="url(#ba8d5fb1db)"><path fill="#ffb300" d="M 222.597656 550.730469 L 276.027344 551.976562 L 276.0625 550.378906 L 222.640625 549.132812 L 222.597656 550.730469 " fill-opacity="1" fill-rule="nonzero"/></g><path fill="#ffb300" d="M 302.585938 586.09375 L 245.066406 590.960938 L 245.203125 592.546875 L 302.722656 587.679688 L 302.585938 586.09375 " fill-opacity="1" fill-rule="nonzero"/><path fill="#ffb300" d="M 248.792969 625.308594 L 260.648438 603.089844 L 259.242188 602.339844 L 247.390625 624.5625 L 248.792969 625.308594 " fill-opacity="1" fill-rule="nonzero"/><path fill="#ffb300" d="M 320.367188 620.1875 L 272.796875 610.90625 L 272.496094 612.472656 L 320.066406 621.753906 L 320.367188 620.1875 " fill-opacity="1" fill-rule="nonzero"/><path fill="#ffb300" d="M 392.53125 581.460938 L 409.492188 621.722656 L 410.964844 621.097656 L 394.003906 580.839844 L 392.53125 581.460938 " fill-opacity="1" fill-rule="nonzero"/><path fill="#ffb300" d="M 400.496094 558.171875 L 393.355469 597.25 L 394.917969 597.546875 L 402.058594 558.460938 L 400.496094 558.171875 " fill-opacity="1" fill-rule="nonzero"/><path fill="#ffb300" d="M 253.980469 574.074219 L 225.976562 535.464844 L 224.695312 536.390625 L 252.699219 575.007812 L 253.980469 574.074219 " fill-opacity="1" fill-rule="nonzero"/><path fill="#ffb300" d="M 499.722656 547.429688 L 501.453125 530.269531 L 499.871094 530.109375 L 498.140625 547.269531 L 499.722656 547.429688 " fill-opacity="1" fill-rule="nonzero"/><path fill="#ffb300" d="M 533.53125 564.847656 L 527.363281 609.449219 L 528.945312 609.667969 L 535.113281 565.066406 L 533.53125 564.847656 " fill-opacity="1" fill-rule="nonzero"/><path fill="#ffb300" d="M 481.5 552.359375 L 520.507812 598.289062 L 521.71875 597.25 L 482.714844 551.324219 L 481.5 552.359375 " fill-opacity="1" fill-rule="nonzero"/><path fill="#ffb300" d="M 532.523438 618.21875 L 495.554688 622.21875 L 495.726562 623.796875 L 532.691406 619.796875 L 532.523438 618.21875 " fill-opacity="1" fill-rule="nonzero"/><path fill="#ffb300" d="M 517.933594 578.699219 L 515.421875 535.664062 L 513.839844 535.757812 L 516.347656 578.792969 L 517.933594 578.699219 " fill-opacity="1" fill-rule="nonzero"/><path fill="#ffb300" d="M 470.441406 631.59375 L 493.949219 554.496094 L 492.429688 554.027344 L 468.921875 631.125 L 470.441406 631.59375 " fill-opacity="1" fill-rule="nonzero"/><path fill="#ffb300" d="M 483.394531 619.105469 L 460.726562 586.8125 L 459.425781 587.730469 L 482.085938 620.027344 L 483.394531 619.105469 " fill-opacity="1" fill-rule="nonzero"/><path fill="#ffb300" d="M 495.507812 588.832031 L 439.09375 573.863281 L 438.683594 575.398438 L 495.085938 590.367188 L 495.507812 588.832031 " fill-opacity="1" fill-rule="nonzero"/><path fill="#ffb300" d="M 408.554688 557.589844 L 448.261719 526.746094 L 447.285156 525.484375 L 407.578125 556.332031 L 408.554688 557.589844 " fill-opacity="1" fill-rule="nonzero"/><path fill="#ffb300" d="M 408.660156 520.710938 L 475.128906 555.222656 L 475.855469 553.8125 L 409.390625 519.296875 L 408.660156 520.710938 " fill-opacity="1" fill-rule="nonzero"/><path fill="#ffb300" d="M 525.621094 559.1875 L 538.660156 527.621094 L 537.195312 527.015625 L 524.15625 558.582031 L 525.621094 559.1875 " fill-opacity="1" fill-rule="nonzero"/><g clip-path="url(#43ff8a3d6a)"><path fill="#ffb300" d="M 589.339844 539.847656 L 564.003906 592.449219 L 565.4375 593.148438 L 590.769531 540.546875 L 589.339844 539.847656 " fill-opacity="1" fill-rule="nonzero"/></g><path fill="#ffb300" d="M 449.09375 553.285156 L 467.25 572.191406 L 468.40625 571.089844 L 450.246094 552.179688 L 449.09375 553.285156 " fill-opacity="1" fill-rule="nonzero"/><path fill="#ffb300" d="M 497.84375 561.367188 L 537.976562 544.179688 L 537.34375 542.714844 L 497.214844 559.902344 L 497.84375 561.367188 " fill-opacity="1" fill-rule="nonzero"/><path fill="#ffb300" d="M 536.292969 629.074219 L 481.480469 602.175781 L 480.773438 603.597656 L 535.589844 630.496094 L 536.292969 629.074219 " fill-opacity="1" fill-rule="nonzero"/><path fill="#ffb300" d="M 568.042969 566.648438 L 534.472656 558.351562 L 534.085938 559.890625 L 567.65625 568.191406 L 568.042969 566.648438 " fill-opacity="1" fill-rule="nonzero"/><path fill="#ffb300" d="M 564.058594 540.738281 L 563.460938 562.789062 L 565.050781 562.824219 L 565.648438 540.777344 L 564.058594 540.738281 " fill-opacity="1" fill-rule="nonzero"/><path fill="#ffb300" d="M 446.050781 564.035156 L 411.621094 537.144531 L 410.640625 538.40625 L 445.070312 565.296875 L 446.050781 564.035156 " fill-opacity="1" fill-rule="nonzero"/><path fill="#ffb300" d="M 450.449219 588.253906 L 437.636719 550.652344 L 436.128906 551.15625 L 448.941406 588.761719 L 450.449219 588.253906 " fill-opacity="1" fill-rule="nonzero"/><path fill="#ffb300" d="M 554.621094 613.929688 L 540.285156 586.105469 L 538.878906 586.835938 L 553.199219 614.667969 L 554.621094 613.929688 " fill-opacity="1" fill-rule="nonzero"/><path fill="#ffb300" d="M 338.515625 714.75 L 329.425781 729.40625 L 330.78125 730.246094 L 339.871094 715.585938 L 338.515625 714.75 " fill-opacity="1" fill-rule="nonzero"/><path fill="#ffb300" d="M 315.789062 684.257812 L 340.914062 646.894531 L 339.585938 646.003906 L 314.464844 683.367188 L 315.789062 684.257812 " fill-opacity="1" fill-rule="nonzero"/><path fill="#ffb300" d="M 357.054688 718.320312 L 342.175781 659.929688 L 340.628906 660.332031 L 355.507812 718.71875 L 357.054688 718.320312 " fill-opacity="1" fill-rule="nonzero"/><path fill="#ffb300" d="M 340.125 636.746094 L 375.097656 649.386719 L 375.636719 647.890625 L 340.667969 635.253906 L 340.125 636.746094 " fill-opacity="1" fill-rule="nonzero"/><path fill="#ffb300" d="M 335.886719 678.65625 L 319.246094 718.429688 L 320.710938 719.039062 L 337.351562 679.273438 L 335.886719 678.65625 " fill-opacity="1" fill-rule="nonzero"/><path fill="#ffb300" d="M 401.777344 651.988281 L 346.808594 710.933594 L 347.96875 712.023438 L 402.9375 653.078125 L 401.777344 651.988281 " fill-opacity="1" fill-rule="nonzero"/><path fill="#ffb300" d="M 384.65625 657.519531 L 390.84375 696.484375 L 392.417969 696.230469 L 386.234375 657.265625 L 384.65625 657.519531 " fill-opacity="1" fill-rule="nonzero"/><path fill="#ffb300" d="M 360.484375 679.402344 L 404.59375 717.617188 L 405.640625 716.417969 L 361.535156 678.210938 L 360.484375 679.402344 " fill-opacity="1" fill-rule="nonzero"/><path fill="#ffb300" d="M 424.890625 745.644531 L 375.671875 755.925781 L 375.996094 757.488281 L 425.214844 747.207031 L 424.890625 745.644531 " fill-opacity="1" fill-rule="nonzero"/><g clip-path="url(#2bd2a6b5d7)"><path fill="#ffb300" d="M 379.195312 780.554688 L 320.574219 747.558594 L 319.789062 748.957031 L 378.410156 781.945312 L 379.195312 780.554688 " fill-opacity="1" fill-rule="nonzero"/></g><g clip-path="url(#074abc948c)"><path fill="#ffb300" d="M 408.601562 778.734375 L 364.035156 718.542969 L 362.765625 719.492188 L 407.328125 779.683594 L 408.601562 778.734375 " fill-opacity="1" fill-rule="nonzero"/></g><g clip-path="url(#71550b8141)"><path fill="#ffb300" d="M 339.78125 745.523438 L 295.269531 781.648438 L 296.273438 782.878906 L 340.785156 746.757812 L 339.78125 745.523438 " fill-opacity="1" fill-rule="nonzero"/></g><g clip-path="url(#96b06f6b35)"><path fill="#ffb300" d="M 360.730469 749.1875 L 336.8125 772.527344 L 337.929688 773.664062 L 361.847656 750.332031 L 360.730469 749.1875 " fill-opacity="1" fill-rule="nonzero"/></g><path fill="#ffb300" d="M 361.125 738.738281 L 317.238281 729.625 L 316.914062 731.179688 L 360.804688 740.289062 L 361.125 738.738281 " fill-opacity="1" fill-rule="nonzero"/><g clip-path="url(#5a4cccc467)"><path fill="#ffb300" d="M 274.210938 779.339844 L 227.410156 724.429688 L 226.203125 725.460938 L 273.003906 780.375 L 274.210938 779.339844 " fill-opacity="1" fill-rule="nonzero"/></g><g clip-path="url(#8ff986ab00)"><path fill="#ffb300" d="M 295.347656 771.816406 L 269.90625 718.253906 L 268.472656 718.933594 L 293.910156 772.496094 L 295.347656 771.816406 " fill-opacity="1" fill-rule="nonzero"/></g><path fill="#ffb300" d="M 320.410156 692.816406 L 294.835938 715.453125 L 295.890625 716.640625 L 321.460938 694 L 320.410156 692.816406 " fill-opacity="1" fill-rule="nonzero"/><path fill="#ffb300" d="M 254.671875 682.21875 L 300.527344 646.078125 L 299.546875 644.824219 L 253.691406 680.960938 L 254.671875 682.21875 " fill-opacity="1" fill-rule="nonzero"/><path fill="#ffb300" d="M 252.28125 690.1875 L 303.515625 743.5625 L 304.660156 742.460938 L 253.421875 689.082031 L 252.28125 690.1875 " fill-opacity="1" fill-rule="nonzero"/><path fill="#ffb300" d="M 386.574219 731.714844 L 378.5625 706.757812 L 377.042969 707.242188 L 385.058594 732.203125 L 386.574219 731.714844 " fill-opacity="1" fill-rule="nonzero"/><path fill="#ffb300" d="M 346.328125 703.054688 L 302.722656 700.878906 L 302.644531 702.46875 L 346.246094 704.644531 L 346.328125 703.054688 " fill-opacity="1" fill-rule="nonzero"/><g clip-path="url(#6d5d076c4b)"><path fill="#ffb300" d="M 222.675781 701.964844 L 276.09375 700.296875 L 276.042969 698.699219 L 222.628906 700.367188 L 222.675781 701.964844 " fill-opacity="1" fill-rule="nonzero"/></g><path fill="#ffb300" d="M 341.507812 625.339844 L 378.941406 673.570312 L 380.203125 672.601562 L 342.761719 624.367188 L 341.507812 625.339844 " fill-opacity="1" fill-rule="nonzero"/><path fill="#ffb300" d="M 285.570312 667.492188 L 312.089844 689.679688 L 313.113281 688.464844 L 286.59375 666.273438 L 285.570312 667.492188 " fill-opacity="1" fill-rule="nonzero"/><path fill="#ffb300" d="M 277.773438 692.515625 L 287.996094 672.96875 L 286.582031 672.238281 L 276.363281 691.785156 L 277.773438 692.515625 " fill-opacity="1" fill-rule="nonzero"/><path fill="#ffb300" d="M 304.46875 732.914062 L 247.304688 740.914062 L 247.523438 742.488281 L 304.691406 734.492188 L 304.46875 732.914062 " fill-opacity="1" fill-rule="nonzero"/><g clip-path="url(#d79fb06808)"><path fill="#ffb300" d="M 252.894531 775.003906 L 263.519531 752.171875 L 262.078125 751.496094 L 251.453125 774.335938 L 252.894531 775.003906 " fill-opacity="1" fill-rule="nonzero"/></g><path fill="#ffb300" d="M 324.082031 765.992188 L 276.078125 759.316406 L 275.863281 760.894531 L 323.867188 767.570312 L 324.082031 765.992188 " fill-opacity="1" fill-rule="nonzero"/><path fill="#ffb300" d="M 394.027344 723.394531 L 413.160156 762.667969 L 414.59375 761.96875 L 395.464844 722.691406 L 394.027344 723.394531 " fill-opacity="1" fill-rule="nonzero"/><path fill="#ffb300" d="M 400.710938 699.703125 L 395.710938 739.113281 L 397.289062 739.324219 L 402.289062 699.90625 L 400.710938 699.703125 " fill-opacity="1" fill-rule="nonzero"/><path fill="#ffb300" d="M 255.28125 723.5625 L 225.214844 686.539062 L 223.988281 687.535156 L 254.050781 724.566406 L 255.28125 723.5625 " fill-opacity="1" fill-rule="nonzero"/><path fill="#ffb300" d="M 318.386719 630.898438 L 319.054688 662.191406 L 320.636719 662.152344 L 319.988281 630.863281 L 318.386719 630.898438 " fill-opacity="1" fill-rule="nonzero"/><path fill="#ffb300" d="M 517.28125 718.347656 L 500.617188 722.800781 L 501.027344 724.339844 L 517.691406 719.882812 L 517.28125 718.347656 " fill-opacity="1" fill-rule="nonzero"/><path fill="#ffb300" d="M 521.601562 680.5625 L 565.496094 670.539062 L 565.140625 668.984375 L 521.246094 679.003906 L 521.601562 680.5625 " fill-opacity="1" fill-rule="nonzero"/><path fill="#ffb300" d="M 528.339844 733.644531 L 557.488281 680.902344 L 556.085938 680.136719 L 526.945312 732.875 L 528.339844 733.644531 " fill-opacity="1" fill-rule="nonzero"/><g clip-path="url(#647fdca6b3)"><path fill="#ffb300" d="M 571.871094 662.609375 L 588.699219 695.769531 L 590.117188 695.050781 L 573.289062 661.890625 L 571.871094 662.609375 " fill-opacity="1" fill-rule="nonzero"/></g><path fill="#ffb300" d="M 540.078125 690.242188 L 500.71875 707.832031 L 501.367188 709.277344 L 540.726562 691.695312 L 540.078125 690.242188 " fill-opacity="1" fill-rule="nonzero"/><g clip-path="url(#7024662eaa)"><path fill="#ffb300" d="M 606.359375 715.933594 L 525.933594 721.246094 L 526.03125 722.832031 L 606.460938 717.523438 L 606.359375 715.933594 " fill-opacity="1" fill-rule="nonzero"/></g><g clip-path="url(#d53c11fd1b)"><path fill="#ffb300" d="M 590.09375 708.242188 L 567.917969 740.871094 L 569.238281 741.765625 L 591.417969 709.136719 L 590.09375 708.242188 " fill-opacity="1" fill-rule="nonzero"/></g><path fill="#ffb300" d="M 557.492188 707.632812 L 563.46875 765.6875 L 565.046875 765.53125 L 559.074219 707.480469 L 557.492188 707.632812 " fill-opacity="1" fill-rule="nonzero"/><g clip-path="url(#477ae5bd3a)"><path fill="#ffb300" d="M 501.855469 794.15625 L 481.734375 729.964844 L 480.207031 730.449219 L 500.328125 794.632812 L 501.855469 794.15625 " fill-opacity="1" fill-rule="nonzero"/></g><g clip-path="url(#c2d34e4972)"><path fill="#ffb300" d="M 524.53125 812.96875 L 533.277344 738.585938 L 531.699219 738.40625 L 522.949219 812.789062 L 524.53125 812.96875 " fill-opacity="1" fill-rule="nonzero"/></g><path fill="#ffb300" d="M 497.125 741.636719 L 439.953125 737.476562 L 439.839844 739.0625 L 497.007812 743.222656 L 497.125 741.636719 " fill-opacity="1" fill-rule="nonzero"/><path fill="#ffb300" d="M 509.882812 758.652344 L 476.46875 759.28125 L 476.503906 760.875 L 509.910156 760.25 L 509.882812 758.652344 " fill-opacity="1" fill-rule="nonzero"/><path fill="#ffb300" d="M 517.328125 751.308594 L 491.585938 714.613281 L 490.285156 715.523438 L 516.03125 752.222656 L 517.328125 751.308594 " fill-opacity="1" fill-rule="nonzero"/><path fill="#ffb300" d="M 426.1875 721.371094 L 429.6875 649.308594 L 428.101562 649.230469 L 424.59375 721.300781 L 426.1875 721.371094 " fill-opacity="1" fill-rule="nonzero"/><path fill="#ffb300" d="M 446.742188 730.367188 L 464.886719 673.914062 L 463.371094 673.425781 L 445.230469 729.875 L 446.742188 730.367188 " fill-opacity="1" fill-rule="nonzero"/><path fill="#ffb300" d="M 519.105469 689.964844 L 484.96875 688.941406 L 484.921875 690.527344 L 519.0625 691.546875 L 519.105469 689.964844 " fill-opacity="1" fill-rule="nonzero"/><path fill="#ffb300" d="M 478.464844 637.21875 L 536.625 642.289062 L 536.769531 640.703125 L 478.605469 635.632812 L 478.464844 637.21875 " fill-opacity="1" fill-rule="nonzero"/><path fill="#ffb300" d="M 471.261719 641.390625 L 472.042969 715.371094 L 473.628906 715.351562 L 472.851562 641.367188 L 471.261719 641.390625 " fill-opacity="1" fill-rule="nonzero"/><path fill="#ffb300" d="M 540.679688 763.625 L 551.933594 739.949219 L 550.496094 739.257812 L 539.238281 762.9375 L 540.679688 763.625 " fill-opacity="1" fill-rule="nonzero"/><path fill="#ffb300" d="M 530.980469 715.171875 L 500.695312 683.722656 L 499.550781 684.832031 L 529.832031 716.277344 L 530.980469 715.171875 " fill-opacity="1" fill-rule="nonzero"/><path fill="#ffb300" d="M 441.621094 629.695312 L 481.6875 665.0625 L 482.746094 663.863281 L 442.683594 628.5 L 441.621094 629.695312 " fill-opacity="1" fill-rule="nonzero"/><path fill="#ffb300" d="M 580.691406 655.242188 L 574.9375 716.023438 L 576.519531 716.183594 L 582.269531 655.394531 L 580.691406 655.242188 " fill-opacity="1" fill-rule="nonzero"/><path fill="#ffb300" d="M 511.0625 647.648438 L 515.195312 681.980469 L 516.765625 681.796875 L 512.644531 647.460938 L 511.0625 647.648438 " fill-opacity="1" fill-rule="nonzero"/><path fill="#ffb300" d="M 488.242188 660.546875 L 509.078125 653.300781 L 508.550781 651.800781 L 487.714844 659.046875 L 488.242188 660.546875 " fill-opacity="1" fill-rule="nonzero"/><path fill="#ffb300" d="M 480.027344 708.265625 L 432.894531 674.945312 L 431.976562 676.242188 L 479.109375 709.566406 L 480.027344 708.265625 " fill-opacity="1" fill-rule="nonzero"/><path fill="#ffb300" d="M 413.625 703.613281 L 437.003906 694.253906 L 436.410156 692.777344 L 413.03125 702.136719 L 413.625 703.613281 " fill-opacity="1" fill-rule="nonzero"/><path fill="#ffb300" d="M 471.667969 745.800781 L 441.257812 708.058594 L 440.019531 709.0625 L 470.429688 746.804688 L 471.667969 745.800781 " fill-opacity="1" fill-rule="nonzero"/><g clip-path="url(#90f5880d18)"><path fill="#ffb300" d="M 551.8125 762.660156 L 538.855469 804.382812 L 540.378906 804.855469 L 553.339844 763.132812 L 551.8125 762.660156 " fill-opacity="1" fill-rule="nonzero"/></g><g clip-path="url(#741860894a)"><path fill="#ffb300" d="M 572.90625 749.976562 L 542.273438 775.269531 L 543.28125 776.503906 L 573.914062 751.207031 L 572.90625 749.976562 " fill-opacity="1" fill-rule="nonzero"/></g><path fill="#ffb300" d="M 413.503906 666.519531 L 465.414062 629.804688 L 464.496094 628.492188 L 412.578125 665.214844 L 413.503906 666.519531 " fill-opacity="1" fill-rule="nonzero"/><path fill="#ffb300" d="M 560.039062 643.457031 L 539.089844 666.71875 L 540.273438 667.773438 L 561.230469 644.527344 L 560.039062 643.457031 " fill-opacity="1" fill-rule="nonzero"/><path fill="#ffb300" d="M 337.574219 329.125 L 327.699219 343.265625 L 329.003906 344.179688 L 338.878906 330.035156 L 337.574219 329.125 " fill-opacity="1" fill-rule="nonzero"/><path fill="#ffb300" d="M 355.886719 333.703125 L 344.210938 274.585938 L 342.644531 274.902344 L 354.324219 334.011719 L 355.886719 333.703125 " fill-opacity="1" fill-rule="nonzero"/><path fill="#ffb300" d="M 336.910156 292.945312 L 318.128906 331.75 L 319.558594 332.4375 L 338.339844 293.636719 L 336.910156 292.945312 " fill-opacity="1" fill-rule="nonzero"/><g clip-path="url(#9ac48047a4)"><path fill="#ffb300" d="M 404.15625 269.902344 L 346.058594 325.769531 L 347.15625 326.917969 L 405.257812 271.050781 L 404.15625 269.902344 " fill-opacity="1" fill-rule="nonzero"/></g><path fill="#ffb300" d="M 386.761719 274.492188 L 390.816406 313.738281 L 392.402344 313.570312 L 388.351562 274.324219 L 386.761719 274.492188 " fill-opacity="1" fill-rule="nonzero"/><path fill="#ffb300" d="M 361.429688 295.027344 L 403.394531 335.585938 L 404.503906 334.449219 L 362.542969 293.890625 L 361.429688 295.027344 " fill-opacity="1" fill-rule="nonzero"/><path fill="#ffb300" d="M 422.136719 364.679688 L 372.429688 372.265625 L 372.667969 373.839844 L 422.375 366.253906 L 422.136719 364.679688 " fill-opacity="1" fill-rule="nonzero"/><path fill="#ffb300" d="M 374.605469 397.046875 L 317.871094 360.910156 L 317.011719 362.261719 L 373.746094 398.394531 L 374.605469 397.046875 " fill-opacity="1" fill-rule="nonzero"/><path fill="#ffb300" d="M 404.070312 396.832031 L 362.847656 334.304688 L 361.523438 335.183594 L 402.742188 397.710938 L 404.070312 396.832031 " fill-opacity="1" fill-rule="nonzero"/><path fill="#ffb300" d="M 337.160156 359.925781 L 290.746094 393.566406 L 291.679688 394.851562 L 338.089844 361.210938 L 337.160156 359.925781 " fill-opacity="1" fill-rule="nonzero"/><path fill="#ffb300" d="M 357.875 364.722656 L 332.722656 386.722656 L 333.777344 387.917969 L 358.929688 365.925781 L 357.875 364.722656 " fill-opacity="1" fill-rule="nonzero"/><path fill="#ffb300" d="M 358.839844 354.308594 L 315.515625 342.820312 L 315.105469 344.355469 L 358.4375 355.84375 L 358.839844 354.308594 " fill-opacity="1" fill-rule="nonzero"/><path fill="#ffb300" d="M 269.84375 390.117188 L 226.101562 332.738281 L 224.839844 333.703125 L 268.582031 391.085938 L 269.84375 390.117188 " fill-opacity="1" fill-rule="nonzero"/><path fill="#ffb300" d="M 291.359375 383.753906 L 268.875 328.886719 L 267.402344 329.488281 L 289.886719 384.355469 L 291.359375 383.753906 " fill-opacity="1" fill-rule="nonzero"/><path fill="#ffb300" d="M 320.6875 306.238281 L 293.917969 327.445312 L 294.902344 328.6875 L 321.671875 307.476562 L 320.6875 306.238281 " fill-opacity="1" fill-rule="nonzero"/><path fill="#ffb300" d="M 252.800781 299.902344 L 301.050781 355.988281 L 302.253906 354.949219 L 254.003906 298.859375 L 252.800781 299.902344 " fill-opacity="1" fill-rule="nonzero"/><path fill="#ffb300" d="M 384.636719 348.683594 L 377.996094 323.328125 L 376.449219 323.726562 L 383.09375 349.089844 L 384.636719 348.683594 " fill-opacity="1" fill-rule="nonzero"/><path fill="#ffb300" d="M 346.007812 317.871094 L 302.585938 313.324219 L 302.421875 314.90625 L 345.84375 319.457031 L 346.007812 317.871094 " fill-opacity="1" fill-rule="nonzero"/><g clip-path="url(#fc9fefc89b)"><path fill="#ffb300" d="M 222.597656 310.046875 L 276.027344 311.292969 L 276.0625 309.695312 L 222.640625 308.453125 L 222.597656 310.046875 " fill-opacity="1" fill-rule="nonzero"/></g><path fill="#ffb300" d="M 302.585938 345.410156 L 245.066406 350.28125 L 245.203125 351.867188 L 302.722656 346.996094 L 302.585938 345.410156 " fill-opacity="1" fill-rule="nonzero"/><path fill="#ffb300" d="M 248.792969 384.625 L 260.648438 362.40625 L 259.242188 361.65625 L 247.390625 383.878906 L 248.792969 384.625 " fill-opacity="1" fill-rule="nonzero"/><path fill="#ffb300" d="M 320.367188 379.507812 L 272.796875 370.226562 L 272.496094 371.789062 L 320.066406 381.070312 L 320.367188 379.507812 " fill-opacity="1" fill-rule="nonzero"/><path fill="#ffb300" d="M 392.53125 340.777344 L 409.492188 381.039062 L 410.964844 380.417969 L 394.003906 340.15625 L 392.53125 340.777344 " fill-opacity="1" fill-rule="nonzero"/><path fill="#ffb300" d="M 400.496094 317.488281 L 393.355469 356.566406 L 394.917969 356.863281 L 402.058594 317.777344 L 400.496094 317.488281 " fill-opacity="1" fill-rule="nonzero"/><path fill="#ffb300" d="M 253.980469 333.390625 L 225.976562 294.785156 L 224.695312 295.710938 L 252.699219 334.324219 L 253.980469 333.390625 " fill-opacity="1" fill-rule="nonzero"/><path fill="#ffb300" d="M 499.722656 306.75 L 501.453125 289.585938 L 499.871094 289.425781 L 498.140625 306.589844 L 499.722656 306.75 " fill-opacity="1" fill-rule="nonzero"/><path fill="#ffb300" d="M 533.53125 324.164062 L 527.363281 368.765625 L 528.945312 368.984375 L 535.113281 324.382812 L 533.53125 324.164062 " fill-opacity="1" fill-rule="nonzero"/><path fill="#ffb300" d="M 481.5 311.675781 L 520.507812 357.605469 L 521.71875 356.566406 L 482.714844 310.640625 L 481.5 311.675781 " fill-opacity="1" fill-rule="nonzero"/><path fill="#ffb300" d="M 532.523438 377.535156 L 495.554688 381.535156 L 495.726562 383.113281 L 532.691406 379.117188 L 532.523438 377.535156 " fill-opacity="1" fill-rule="nonzero"/><path fill="#ffb300" d="M 517.933594 338.019531 L 515.421875 294.980469 L 513.839844 295.074219 L 516.347656 338.109375 L 517.933594 338.019531 " fill-opacity="1" fill-rule="nonzero"/><path fill="#ffb300" d="M 470.441406 390.910156 L 493.949219 313.816406 L 492.429688 313.34375 L 468.921875 390.441406 L 470.441406 390.910156 " fill-opacity="1" fill-rule="nonzero"/><path fill="#ffb300" d="M 483.394531 378.421875 L 460.726562 346.132812 L 459.425781 347.046875 L 482.085938 379.34375 L 483.394531 378.421875 " fill-opacity="1" fill-rule="nonzero"/><path fill="#ffb300" d="M 495.507812 348.148438 L 439.09375 333.179688 L 438.683594 334.71875 L 495.085938 349.683594 L 495.507812 348.148438 " fill-opacity="1" fill-rule="nonzero"/><path fill="#ffb300" d="M 408.554688 316.90625 L 448.261719 286.0625 L 447.285156 284.804688 L 407.578125 315.648438 L 408.554688 316.90625 " fill-opacity="1" fill-rule="nonzero"/><path fill="#ffb300" d="M 408.660156 280.027344 L 475.128906 314.542969 L 475.855469 313.128906 L 409.390625 278.613281 L 408.660156 280.027344 " fill-opacity="1" fill-rule="nonzero"/><path fill="#ffb300" d="M 525.621094 318.503906 L 538.660156 286.941406 L 537.195312 286.332031 L 524.15625 317.902344 L 525.621094 318.503906 " fill-opacity="1" fill-rule="nonzero"/><g clip-path="url(#ef0c7ea07e)"><path fill="#ffb300" d="M 589.339844 299.164062 L 564.003906 351.769531 L 565.4375 352.464844 L 590.769531 299.863281 L 589.339844 299.164062 " fill-opacity="1" fill-rule="nonzero"/></g><path fill="#ffb300" d="M 449.09375 312.601562 L 467.25 331.507812 L 468.40625 330.40625 L 450.246094 311.496094 L 449.09375 312.601562 " fill-opacity="1" fill-rule="nonzero"/><path fill="#ffb300" d="M 497.84375 320.683594 L 537.976562 303.496094 L 537.34375 302.03125 L 497.214844 319.21875 L 497.84375 320.683594 " fill-opacity="1" fill-rule="nonzero"/><path fill="#ffb300" d="M 536.292969 388.390625 L 481.480469 361.492188 L 480.773438 362.914062 L 535.589844 389.816406 L 536.292969 388.390625 " fill-opacity="1" fill-rule="nonzero"/><path fill="#ffb300" d="M 568.042969 325.964844 L 534.472656 317.671875 L 534.085938 319.207031 L 567.65625 327.507812 L 568.042969 325.964844 " fill-opacity="1" fill-rule="nonzero"/><path fill="#ffb300" d="M 564.058594 300.054688 L 563.460938 322.105469 L 565.050781 322.144531 L 565.648438 300.09375 L 564.058594 300.054688 " fill-opacity="1" fill-rule="nonzero"/><path fill="#ffb300" d="M 446.050781 323.351562 L 411.621094 296.460938 L 410.640625 297.722656 L 445.070312 324.613281 L 446.050781 323.351562 " fill-opacity="1" fill-rule="nonzero"/><path fill="#ffb300" d="M 450.449219 347.570312 L 437.636719 309.96875 L 436.128906 310.472656 L 448.941406 348.082031 L 450.449219 347.570312 " fill-opacity="1" fill-rule="nonzero"/><path fill="#ffb300" d="M 554.621094 373.25 L 540.285156 345.421875 L 538.878906 346.15625 L 553.199219 373.984375 L 554.621094 373.25 " fill-opacity="1" fill-rule="nonzero"/><path fill="#ffb300" d="M 338.515625 474.066406 L 329.425781 488.726562 L 330.78125 489.5625 L 339.871094 474.90625 L 338.515625 474.066406 " fill-opacity="1" fill-rule="nonzero"/><path fill="#ffb300" d="M 315.789062 443.578125 L 340.914062 406.210938 L 339.585938 405.320312 L 314.464844 442.683594 L 315.789062 443.578125 " fill-opacity="1" fill-rule="nonzero"/><path fill="#ffb300" d="M 357.054688 477.640625 L 342.175781 419.246094 L 340.628906 419.648438 L 355.507812 478.035156 L 357.054688 477.640625 " fill-opacity="1" fill-rule="nonzero"/><path fill="#ffb300" d="M 340.125 396.0625 L 375.097656 408.703125 L 375.636719 407.210938 L 340.667969 394.570312 L 340.125 396.0625 " fill-opacity="1" fill-rule="nonzero"/><path fill="#ffb300" d="M 335.886719 437.976562 L 319.246094 477.746094 L 320.710938 478.355469 L 337.351562 438.589844 L 335.886719 437.976562 " fill-opacity="1" fill-rule="nonzero"/><path fill="#ffb300" d="M 401.777344 411.304688 L 346.808594 470.253906 L 347.96875 471.339844 L 402.9375 412.394531 L 401.777344 411.304688 " fill-opacity="1" fill-rule="nonzero"/><path fill="#ffb300" d="M 384.65625 416.835938 L 390.84375 455.800781 L 392.417969 455.550781 L 386.234375 416.582031 L 384.65625 416.835938 " fill-opacity="1" fill-rule="nonzero"/><path fill="#ffb300" d="M 360.484375 438.71875 L 404.59375 476.933594 L 405.640625 475.738281 L 361.535156 437.527344 L 360.484375 438.71875 " fill-opacity="1" fill-rule="nonzero"/><path fill="#ffb300" d="M 424.890625 504.964844 L 375.671875 515.246094 L 375.996094 516.804688 L 425.214844 506.523438 L 424.890625 504.964844 " fill-opacity="1" fill-rule="nonzero"/><g clip-path="url(#0b4061241d)"><path fill="#ffb300" d="M 379.195312 539.875 L 320.574219 506.875 L 319.789062 508.273438 L 378.410156 541.265625 L 379.195312 539.875 " fill-opacity="1" fill-rule="nonzero"/></g><g clip-path="url(#ea6a4f0871)"><path fill="#ffb300" d="M 408.601562 538.050781 L 364.035156 477.863281 L 362.765625 478.8125 L 407.328125 539 L 408.601562 538.050781 " fill-opacity="1" fill-rule="nonzero"/></g><g clip-path="url(#bb6f7f8fd1)"><path fill="#ffb300" d="M 339.78125 504.84375 L 295.269531 540.964844 L 296.273438 542.195312 L 340.785156 506.074219 L 339.78125 504.84375 " fill-opacity="1" fill-rule="nonzero"/></g><g clip-path="url(#ebf556b29b)"><path fill="#ffb300" d="M 360.730469 508.503906 L 336.8125 531.84375 L 337.929688 532.984375 L 361.847656 509.648438 L 360.730469 508.503906 " fill-opacity="1" fill-rule="nonzero"/></g><path fill="#ffb300" d="M 361.125 498.054688 L 317.238281 488.945312 L 316.914062 490.496094 L 360.804688 499.609375 L 361.125 498.054688 " fill-opacity="1" fill-rule="nonzero"/><g clip-path="url(#0176d4a77c)"><path fill="#ffb300" d="M 274.210938 538.65625 L 227.410156 483.746094 L 226.203125 484.777344 L 273.003906 539.695312 L 274.210938 538.65625 " fill-opacity="1" fill-rule="nonzero"/></g><g clip-path="url(#43650afc88)"><path fill="#ffb300" d="M 295.347656 531.132812 L 269.90625 477.570312 L 268.472656 478.25 L 293.910156 531.8125 L 295.347656 531.132812 " fill-opacity="1" fill-rule="nonzero"/></g><path fill="#ffb300" d="M 320.410156 452.132812 L 294.835938 474.769531 L 295.890625 475.957031 L 321.460938 453.320312 L 320.410156 452.132812 " fill-opacity="1" fill-rule="nonzero"/><path fill="#ffb300" d="M 254.671875 441.535156 L 300.527344 405.394531 L 299.546875 404.140625 L 253.691406 440.28125 L 254.671875 441.535156 " fill-opacity="1" fill-rule="nonzero"/><path fill="#ffb300" d="M 252.28125 449.503906 L 303.515625 502.878906 L 304.660156 501.777344 L 253.421875 448.402344 L 252.28125 449.503906 " fill-opacity="1" fill-rule="nonzero"/><path fill="#ffb300" d="M 386.574219 491.035156 L 378.5625 466.078125 L 377.042969 466.558594 L 385.058594 491.523438 L 386.574219 491.035156 " fill-opacity="1" fill-rule="nonzero"/><path fill="#ffb300" d="M 346.328125 462.371094 L 302.722656 460.195312 L 302.644531 461.789062 L 346.246094 463.964844 L 346.328125 462.371094 " fill-opacity="1" fill-rule="nonzero"/><g clip-path="url(#741aa217f7)"><path fill="#ffb300" d="M 222.675781 461.28125 L 276.09375 459.613281 L 276.042969 458.015625 L 222.628906 459.683594 L 222.675781 461.28125 " fill-opacity="1" fill-rule="nonzero"/></g><path fill="#ffb300" d="M 341.507812 384.660156 L 378.941406 432.886719 L 380.203125 431.921875 L 342.761719 383.6875 L 341.507812 384.660156 " fill-opacity="1" fill-rule="nonzero"/><path fill="#ffb300" d="M 285.570312 426.808594 L 312.089844 448.996094 L 313.113281 447.785156 L 286.59375 425.589844 L 285.570312 426.808594 " fill-opacity="1" fill-rule="nonzero"/><path fill="#ffb300" d="M 277.773438 451.835938 L 287.996094 432.285156 L 286.582031 431.554688 L 276.363281 451.101562 L 277.773438 451.835938 " fill-opacity="1" fill-rule="nonzero"/><path fill="#ffb300" d="M 304.46875 492.234375 L 247.304688 500.230469 L 247.523438 501.808594 L 304.691406 493.808594 L 304.46875 492.234375 " fill-opacity="1" fill-rule="nonzero"/><g clip-path="url(#88ec5e332f)"><path fill="#ffb300" d="M 252.894531 534.320312 L 263.519531 511.488281 L 262.078125 510.816406 L 251.453125 533.652344 L 252.894531 534.320312 " fill-opacity="1" fill-rule="nonzero"/></g><path fill="#ffb300" d="M 324.082031 525.308594 L 276.078125 518.632812 L 275.863281 520.210938 L 323.867188 526.886719 L 324.082031 525.308594 " fill-opacity="1" fill-rule="nonzero"/><path fill="#ffb300" d="M 394.027344 482.710938 L 413.160156 521.988281 L 414.59375 521.285156 L 395.464844 482.007812 L 394.027344 482.710938 " fill-opacity="1" fill-rule="nonzero"/><path fill="#ffb300" d="M 400.710938 459.019531 L 395.710938 498.429688 L 397.289062 498.640625 L 402.289062 459.226562 L 400.710938 459.019531 " fill-opacity="1" fill-rule="nonzero"/><path fill="#ffb300" d="M 255.28125 482.878906 L 225.214844 445.855469 L 223.988281 446.851562 L 254.050781 483.882812 L 255.28125 482.878906 " fill-opacity="1" fill-rule="nonzero"/><path fill="#ffb300" d="M 318.386719 390.214844 L 319.054688 421.507812 L 320.636719 421.46875 L 319.988281 390.179688 L 318.386719 390.214844 " fill-opacity="1" fill-rule="nonzero"/><path fill="#ffb300" d="M 517.28125 477.664062 L 500.617188 482.121094 L 501.027344 483.65625 L 517.691406 479.203125 L 517.28125 477.664062 " fill-opacity="1" fill-rule="nonzero"/><path fill="#ffb300" d="M 521.601562 439.878906 L 565.496094 429.859375 L 565.140625 428.300781 L 521.246094 438.320312 L 521.601562 439.878906 " fill-opacity="1" fill-rule="nonzero"/><path fill="#ffb300" d="M 528.339844 492.960938 L 557.488281 440.222656 L 556.085938 439.457031 L 526.945312 492.191406 L 528.339844 492.960938 " fill-opacity="1" fill-rule="nonzero"/><g clip-path="url(#93d00e0641)"><path fill="#ffb300" d="M 571.871094 421.925781 L 588.699219 455.085938 L 590.117188 454.367188 L 573.289062 421.207031 L 571.871094 421.925781 " fill-opacity="1" fill-rule="nonzero"/></g><path fill="#ffb300" d="M 540.078125 449.5625 L 500.71875 467.148438 L 501.367188 468.59375 L 540.726562 451.011719 L 540.078125 449.5625 " fill-opacity="1" fill-rule="nonzero"/><g clip-path="url(#4282b3c03e)"><path fill="#ffb300" d="M 606.359375 475.253906 L 525.933594 480.5625 L 526.03125 482.148438 L 606.460938 476.839844 L 606.359375 475.253906 " fill-opacity="1" fill-rule="nonzero"/></g><g clip-path="url(#48e4a28185)"><path fill="#ffb300" d="M 590.09375 467.558594 L 567.917969 500.191406 L 569.238281 501.082031 L 591.417969 468.457031 L 590.09375 467.558594 " fill-opacity="1" fill-rule="nonzero"/></g><path fill="#ffb300" d="M 557.492188 466.949219 L 563.46875 525.003906 L 565.046875 524.847656 L 559.074219 466.800781 L 557.492188 466.949219 " fill-opacity="1" fill-rule="nonzero"/><g clip-path="url(#be96e8bc2a)"><path fill="#ffb300" d="M 501.855469 553.472656 L 481.734375 489.285156 L 480.207031 489.765625 L 500.328125 553.949219 L 501.855469 553.472656 " fill-opacity="1" fill-rule="nonzero"/></g><g clip-path="url(#51aaf7ba4c)"><path fill="#ffb300" d="M 524.53125 572.285156 L 533.277344 497.902344 L 531.699219 497.726562 L 522.949219 572.105469 L 524.53125 572.285156 " fill-opacity="1" fill-rule="nonzero"/></g><path fill="#ffb300" d="M 497.125 500.957031 L 439.953125 496.792969 L 439.839844 498.378906 L 497.007812 502.539062 L 497.125 500.957031 " fill-opacity="1" fill-rule="nonzero"/><path fill="#ffb300" d="M 509.882812 517.96875 L 476.46875 518.597656 L 476.503906 520.191406 L 509.910156 519.566406 L 509.882812 517.96875 " fill-opacity="1" fill-rule="nonzero"/><path fill="#ffb300" d="M 517.328125 510.625 L 491.585938 473.929688 L 490.285156 474.839844 L 516.03125 511.539062 L 517.328125 510.625 " fill-opacity="1" fill-rule="nonzero"/><path fill="#ffb300" d="M 426.1875 480.691406 L 429.6875 408.625 L 428.101562 408.550781 L 424.59375 480.617188 L 426.1875 480.691406 " fill-opacity="1" fill-rule="nonzero"/><path fill="#ffb300" d="M 446.742188 489.683594 L 464.886719 433.230469 L 463.371094 432.742188 L 445.230469 489.191406 L 446.742188 489.683594 " fill-opacity="1" fill-rule="nonzero"/><path fill="#ffb300" d="M 519.105469 449.28125 L 484.96875 448.261719 L 484.921875 449.84375 L 519.0625 450.863281 L 519.105469 449.28125 " fill-opacity="1" fill-rule="nonzero"/><path fill="#ffb300" d="M 478.464844 396.539062 L 536.625 401.605469 L 536.769531 400.019531 L 478.605469 394.949219 L 478.464844 396.539062 " fill-opacity="1" fill-rule="nonzero"/><path fill="#ffb300" d="M 471.261719 400.707031 L 472.042969 474.6875 L 473.628906 474.671875 L 472.851562 400.683594 L 471.261719 400.707031 " fill-opacity="1" fill-rule="nonzero"/><path fill="#ffb300" d="M 540.679688 522.941406 L 551.933594 499.265625 L 550.496094 498.578125 L 539.238281 522.253906 L 540.679688 522.941406 " fill-opacity="1" fill-rule="nonzero"/><path fill="#ffb300" d="M 530.980469 474.488281 L 500.695312 443.042969 L 499.550781 444.148438 L 529.832031 475.59375 L 530.980469 474.488281 " fill-opacity="1" fill-rule="nonzero"/><path fill="#ffb300" d="M 441.621094 389.015625 L 481.6875 424.378906 L 482.746094 423.183594 L 442.683594 387.820312 L 441.621094 389.015625 " fill-opacity="1" fill-rule="nonzero"/><path fill="#ffb300" d="M 580.691406 414.558594 L 574.9375 475.34375 L 576.519531 475.5 L 582.269531 414.710938 L 580.691406 414.558594 " fill-opacity="1" fill-rule="nonzero"/><path fill="#ffb300" d="M 511.0625 406.964844 L 515.195312 441.296875 L 516.765625 441.113281 L 512.644531 406.777344 L 511.0625 406.964844 " fill-opacity="1" fill-rule="nonzero"/><path fill="#ffb300" d="M 488.242188 419.863281 L 509.078125 412.617188 L 508.550781 411.117188 L 487.714844 418.363281 L 488.242188 419.863281 " fill-opacity="1" fill-rule="nonzero"/><path fill="#ffb300" d="M 480.027344 467.585938 L 432.894531 434.261719 L 431.976562 435.5625 L 479.109375 468.886719 L 480.027344 467.585938 " fill-opacity="1" fill-rule="nonzero"/><path fill="#ffb300" d="M 413.625 462.929688 L 437.003906 453.570312 L 436.410156 452.09375 L 413.03125 461.453125 L 413.625 462.929688 " fill-opacity="1" fill-rule="nonzero"/><path fill="#ffb300" d="M 471.667969 505.121094 L 441.257812 467.375 L 440.019531 468.378906 L 470.429688 506.121094 L 471.667969 505.121094 " fill-opacity="1" fill-rule="nonzero"/><g clip-path="url(#4723835915)"><path fill="#ffb300" d="M 551.8125 521.980469 L 538.855469 563.699219 L 540.378906 564.171875 L 553.339844 522.449219 L 551.8125 521.980469 " fill-opacity="1" fill-rule="nonzero"/></g><g clip-path="url(#fd56d43ae6)"><path fill="#ffb300" d="M 572.90625 509.292969 L 542.273438 534.585938 L 543.28125 535.820312 L 573.914062 510.523438 L 572.90625 509.292969 " fill-opacity="1" fill-rule="nonzero"/></g><path fill="#ffb300" d="M 413.503906 425.835938 L 465.414062 389.121094 L 464.496094 387.8125 L 412.578125 424.53125 L 413.503906 425.835938 " fill-opacity="1" fill-rule="nonzero"/><path fill="#ffb300" d="M 560.039062 402.773438 L 539.089844 426.035156 L 540.273438 427.09375 L 561.230469 403.847656 L 560.039062 402.773438 " fill-opacity="1" fill-rule="nonzero"/><path fill="#ffb300" d="M 337.574219 97.648438 L 327.699219 111.792969 L 329.003906 112.703125 L 338.878906 98.5625 L 337.574219 97.648438 " fill-opacity="1" fill-rule="nonzero"/><path fill="#ffb300" d="M 355.886719 102.226562 L 344.210938 43.109375 L 342.644531 43.425781 L 354.324219 102.539062 L 355.886719 102.226562 " fill-opacity="1" fill-rule="nonzero"/><path fill="#ffb300" d="M 336.910156 61.46875 L 318.128906 100.273438 L 319.558594 100.960938 L 338.339844 62.164062 L 336.910156 61.46875 " fill-opacity="1" fill-rule="nonzero"/><g clip-path="url(#8dabc9f58c)"><path fill="#ffb300" d="M 404.15625 38.425781 L 346.058594 94.292969 L 347.15625 95.441406 L 405.257812 39.578125 L 404.15625 38.425781 " fill-opacity="1" fill-rule="nonzero"/></g><path fill="#ffb300" d="M 386.761719 43.019531 L 390.816406 82.261719 L 392.402344 82.097656 L 388.351562 42.851562 L 386.761719 43.019531 " fill-opacity="1" fill-rule="nonzero"/><path fill="#ffb300" d="M 361.429688 63.550781 L 403.394531 104.113281 L 404.503906 102.972656 L 362.542969 62.417969 L 361.429688 63.550781 " fill-opacity="1" fill-rule="nonzero"/><path fill="#ffb300" d="M 422.136719 133.207031 L 372.429688 140.789062 L 372.667969 142.367188 L 422.375 134.78125 L 422.136719 133.207031 " fill-opacity="1" fill-rule="nonzero"/><path fill="#ffb300" d="M 374.605469 165.574219 L 317.871094 129.433594 L 317.011719 130.789062 L 373.746094 166.921875 L 374.605469 165.574219 " fill-opacity="1" fill-rule="nonzero"/><path fill="#ffb300" d="M 404.070312 165.355469 L 362.847656 102.828125 L 361.523438 103.710938 L 402.742188 166.238281 L 404.070312 165.355469 " fill-opacity="1" fill-rule="nonzero"/><path fill="#ffb300" d="M 337.160156 128.449219 L 290.746094 162.09375 L 291.679688 163.378906 L 338.089844 129.734375 L 337.160156 128.449219 " fill-opacity="1" fill-rule="nonzero"/><path fill="#ffb300" d="M 357.875 133.246094 L 332.722656 155.25 L 333.777344 156.445312 L 358.929688 134.449219 L 357.875 133.246094 " fill-opacity="1" fill-rule="nonzero"/><path fill="#ffb300" d="M 358.839844 122.835938 L 315.515625 111.347656 L 315.105469 112.878906 L 358.4375 124.367188 L 358.839844 122.835938 " fill-opacity="1" fill-rule="nonzero"/><path fill="#ffb300" d="M 269.84375 158.640625 L 226.101562 101.265625 L 224.839844 102.226562 L 268.582031 159.609375 L 269.84375 158.640625 " fill-opacity="1" fill-rule="nonzero"/><path fill="#ffb300" d="M 291.359375 152.28125 L 268.875 97.414062 L 267.402344 98.011719 L 289.886719 152.878906 L 291.359375 152.28125 " fill-opacity="1" fill-rule="nonzero"/><path fill="#ffb300" d="M 320.6875 74.765625 L 293.917969 95.972656 L 294.902344 97.214844 L 321.671875 76.003906 L 320.6875 74.765625 " fill-opacity="1" fill-rule="nonzero"/><path fill="#ffb300" d="M 252.800781 68.425781 L 301.050781 124.511719 L 302.253906 123.476562 L 254.003906 67.386719 L 252.800781 68.425781 " fill-opacity="1" fill-rule="nonzero"/><path fill="#ffb300" d="M 384.636719 117.210938 L 377.996094 91.851562 L 376.449219 92.25 L 383.09375 117.613281 L 384.636719 117.210938 " fill-opacity="1" fill-rule="nonzero"/><path fill="#ffb300" d="M 346.007812 86.394531 L 302.585938 81.847656 L 302.421875 83.433594 L 345.84375 87.980469 L 346.007812 86.394531 " fill-opacity="1" fill-rule="nonzero"/><g clip-path="url(#c79b836fda)"><path fill="#ffb300" d="M 222.597656 78.574219 L 276.027344 79.816406 L 276.0625 78.222656 L 222.640625 76.976562 L 222.597656 78.574219 " fill-opacity="1" fill-rule="nonzero"/></g><path fill="#ffb300" d="M 302.585938 113.9375 L 245.066406 118.804688 L 245.203125 120.390625 L 302.722656 115.519531 L 302.585938 113.9375 " fill-opacity="1" fill-rule="nonzero"/><path fill="#ffb300" d="M 248.792969 153.148438 L 260.648438 130.933594 L 259.242188 130.179688 L 247.390625 152.40625 L 248.792969 153.148438 " fill-opacity="1" fill-rule="nonzero"/><path fill="#ffb300" d="M 320.367188 148.03125 L 272.796875 138.75 L 272.496094 140.316406 L 320.066406 149.597656 L 320.367188 148.03125 " fill-opacity="1" fill-rule="nonzero"/><path fill="#ffb300" d="M 392.53125 109.304688 L 409.492188 149.566406 L 410.964844 148.941406 L 394.003906 108.683594 L 392.53125 109.304688 " fill-opacity="1" fill-rule="nonzero"/><path fill="#ffb300" d="M 400.496094 86.011719 L 393.355469 125.09375 L 394.917969 125.386719 L 402.058594 86.304688 L 400.496094 86.011719 " fill-opacity="1" fill-rule="nonzero"/><path fill="#ffb300" d="M 253.980469 101.917969 L 225.976562 63.308594 L 224.695312 64.234375 L 252.699219 102.851562 L 253.980469 101.917969 " fill-opacity="1" fill-rule="nonzero"/><path fill="#ffb300" d="M 499.722656 75.273438 L 501.453125 58.113281 L 499.871094 57.953125 L 498.140625 75.113281 L 499.722656 75.273438 " fill-opacity="1" fill-rule="nonzero"/><path fill="#ffb300" d="M 533.53125 92.691406 L 527.363281 137.292969 L 528.945312 137.511719 L 535.113281 92.910156 L 533.53125 92.691406 " fill-opacity="1" fill-rule="nonzero"/><path fill="#ffb300" d="M 481.5 80.203125 L 520.507812 126.132812 L 521.71875 125.09375 L 482.714844 79.167969 L 481.5 80.203125 " fill-opacity="1" fill-rule="nonzero"/><path fill="#ffb300" d="M 532.523438 146.0625 L 495.554688 150.058594 L 495.726562 151.636719 L 532.691406 147.640625 L 532.523438 146.0625 " fill-opacity="1" fill-rule="nonzero"/><path fill="#ffb300" d="M 517.933594 106.542969 L 515.421875 63.503906 L 513.839844 63.601562 L 516.347656 106.636719 L 517.933594 106.542969 " fill-opacity="1" fill-rule="nonzero"/><path fill="#ffb300" d="M 470.441406 159.4375 L 493.949219 82.339844 L 492.429688 81.871094 L 468.921875 158.96875 L 470.441406 159.4375 " fill-opacity="1" fill-rule="nonzero"/><path fill="#ffb300" d="M 483.394531 146.949219 L 460.726562 114.65625 L 459.425781 115.574219 L 482.085938 147.871094 L 483.394531 146.949219 " fill-opacity="1" fill-rule="nonzero"/><path fill="#ffb300" d="M 495.507812 116.675781 L 439.09375 101.707031 L 438.683594 103.242188 L 495.085938 118.207031 L 495.507812 116.675781 " fill-opacity="1" fill-rule="nonzero"/><path fill="#ffb300" d="M 408.554688 85.433594 L 448.261719 54.585938 L 447.285156 53.328125 L 407.578125 84.171875 L 408.554688 85.433594 " fill-opacity="1" fill-rule="nonzero"/><path fill="#ffb300" d="M 408.660156 48.554688 L 475.128906 83.066406 L 475.855469 81.65625 L 409.390625 47.140625 L 408.660156 48.554688 " fill-opacity="1" fill-rule="nonzero"/><path fill="#ffb300" d="M 525.621094 87.03125 L 538.660156 55.464844 L 537.195312 54.859375 L 524.15625 86.425781 L 525.621094 87.03125 " fill-opacity="1" fill-rule="nonzero"/><g clip-path="url(#a922984457)"><path fill="#ffb300" d="M 589.339844 67.691406 L 564.003906 120.292969 L 565.4375 120.988281 L 590.769531 68.386719 L 589.339844 67.691406 " fill-opacity="1" fill-rule="nonzero"/></g><path fill="#ffb300" d="M 449.09375 81.128906 L 467.25 100.035156 L 468.40625 98.933594 L 450.246094 80.023438 L 449.09375 81.128906 " fill-opacity="1" fill-rule="nonzero"/><path fill="#ffb300" d="M 497.84375 89.210938 L 537.976562 72.023438 L 537.34375 70.558594 L 497.214844 87.746094 L 497.84375 89.210938 " fill-opacity="1" fill-rule="nonzero"/><path fill="#ffb300" d="M 536.292969 156.917969 L 481.480469 130.019531 L 480.773438 131.441406 L 535.589844 158.339844 L 536.292969 156.917969 " fill-opacity="1" fill-rule="nonzero"/><path fill="#ffb300" d="M 568.042969 94.488281 L 534.472656 86.195312 L 534.085938 87.734375 L 567.65625 96.035156 L 568.042969 94.488281 " fill-opacity="1" fill-rule="nonzero"/><path fill="#ffb300" d="M 564.058594 68.578125 L 563.460938 90.628906 L 565.050781 90.667969 L 565.648438 68.617188 L 564.058594 68.578125 " fill-opacity="1" fill-rule="nonzero"/><path fill="#ffb300" d="M 446.050781 91.878906 L 411.621094 64.988281 L 410.640625 66.246094 L 445.070312 93.136719 L 446.050781 91.878906 " fill-opacity="1" fill-rule="nonzero"/><path fill="#ffb300" d="M 450.449219 116.097656 L 437.636719 78.492188 L 436.128906 78.996094 L 448.941406 116.605469 L 450.449219 116.097656 " fill-opacity="1" fill-rule="nonzero"/><path fill="#ffb300" d="M 554.621094 141.773438 L 540.285156 113.949219 L 538.878906 114.679688 L 553.199219 142.507812 L 554.621094 141.773438 " fill-opacity="1" fill-rule="nonzero"/><path fill="#ffb300" d="M 338.515625 242.589844 L 329.425781 257.25 L 330.78125 258.089844 L 339.871094 243.429688 L 338.515625 242.589844 " fill-opacity="1" fill-rule="nonzero"/><path fill="#ffb300" d="M 315.789062 212.101562 L 340.914062 174.734375 L 339.585938 173.84375 L 314.464844 211.207031 L 315.789062 212.101562 " fill-opacity="1" fill-rule="nonzero"/><path fill="#ffb300" d="M 357.054688 246.164062 L 342.175781 187.773438 L 340.628906 188.171875 L 355.507812 246.558594 L 357.054688 246.164062 " fill-opacity="1" fill-rule="nonzero"/><path fill="#ffb300" d="M 340.125 164.589844 L 375.097656 177.230469 L 375.636719 175.734375 L 340.667969 163.097656 L 340.125 164.589844 " fill-opacity="1" fill-rule="nonzero"/><path fill="#ffb300" d="M 335.886719 206.5 L 319.246094 246.269531 L 320.710938 246.882812 L 337.351562 207.117188 L 335.886719 206.5 " fill-opacity="1" fill-rule="nonzero"/><path fill="#ffb300" d="M 401.777344 179.832031 L 346.808594 238.777344 L 347.96875 239.867188 L 402.9375 180.921875 L 401.777344 179.832031 " fill-opacity="1" fill-rule="nonzero"/><path fill="#ffb300" d="M 384.65625 185.359375 L 390.84375 224.328125 L 392.417969 224.074219 L 386.234375 185.109375 L 384.65625 185.359375 " fill-opacity="1" fill-rule="nonzero"/><path fill="#ffb300" d="M 360.484375 207.242188 L 404.59375 245.460938 L 405.640625 244.261719 L 361.535156 206.050781 L 360.484375 207.242188 " fill-opacity="1" fill-rule="nonzero"/><path fill="#ffb300" d="M 424.890625 273.488281 L 375.671875 283.769531 L 375.996094 285.328125 L 425.214844 275.050781 L 424.890625 273.488281 " fill-opacity="1" fill-rule="nonzero"/><g clip-path="url(#963013cb24)"><path fill="#ffb300" d="M 379.195312 308.398438 L 320.574219 275.402344 L 319.789062 276.800781 L 378.410156 309.789062 L 379.195312 308.398438 " fill-opacity="1" fill-rule="nonzero"/></g><g clip-path="url(#15e8440338)"><path fill="#ffb300" d="M 408.601562 306.574219 L 364.035156 246.386719 L 362.765625 247.335938 L 407.328125 307.527344 L 408.601562 306.574219 " fill-opacity="1" fill-rule="nonzero"/></g><g clip-path="url(#af680b5f67)"><path fill="#ffb300" d="M 339.78125 273.367188 L 295.269531 309.488281 L 296.273438 310.722656 L 340.785156 274.601562 L 339.78125 273.367188 " fill-opacity="1" fill-rule="nonzero"/></g><g clip-path="url(#fe35e14a31)"><path fill="#ffb300" d="M 360.730469 277.03125 L 336.8125 300.367188 L 337.929688 301.507812 L 361.847656 278.171875 L 360.730469 277.03125 " fill-opacity="1" fill-rule="nonzero"/></g><path fill="#ffb300" d="M 361.125 266.578125 L 317.238281 257.46875 L 316.914062 259.023438 L 360.804688 268.132812 L 361.125 266.578125 " fill-opacity="1" fill-rule="nonzero"/><g clip-path="url(#8eb535a409)"><path fill="#ffb300" d="M 274.210938 307.183594 L 227.410156 252.273438 L 226.203125 253.300781 L 273.003906 308.21875 L 274.210938 307.183594 " fill-opacity="1" fill-rule="nonzero"/></g><g clip-path="url(#9e2b652877)"><path fill="#ffb300" d="M 295.347656 299.65625 L 269.90625 246.097656 L 268.472656 246.773438 L 293.910156 300.339844 L 295.347656 299.65625 " fill-opacity="1" fill-rule="nonzero"/></g><path fill="#ffb300" d="M 320.410156 220.660156 L 294.835938 243.292969 L 295.890625 244.480469 L 321.460938 221.84375 L 320.410156 220.660156 " fill-opacity="1" fill-rule="nonzero"/><path fill="#ffb300" d="M 254.671875 210.058594 L 300.527344 173.917969 L 299.546875 172.667969 L 253.691406 208.804688 L 254.671875 210.058594 " fill-opacity="1" fill-rule="nonzero"/><path fill="#ffb300" d="M 252.28125 218.03125 L 303.515625 271.40625 L 304.660156 270.304688 L 253.421875 216.925781 L 252.28125 218.03125 " fill-opacity="1" fill-rule="nonzero"/><path fill="#ffb300" d="M 386.574219 259.558594 L 378.5625 234.601562 L 377.042969 235.082031 L 385.058594 260.046875 L 386.574219 259.558594 " fill-opacity="1" fill-rule="nonzero"/><path fill="#ffb300" d="M 346.328125 230.898438 L 302.722656 228.71875 L 302.644531 230.3125 L 346.246094 232.488281 L 346.328125 230.898438 " fill-opacity="1" fill-rule="nonzero"/><g clip-path="url(#0deba6a744)"><path fill="#ffb300" d="M 222.675781 229.808594 L 276.09375 228.136719 L 276.042969 226.542969 L 222.628906 228.210938 L 222.675781 229.808594 " fill-opacity="1" fill-rule="nonzero"/></g><path fill="#ffb300" d="M 341.507812 153.183594 L 378.941406 201.414062 L 380.203125 200.445312 L 342.761719 152.210938 L 341.507812 153.183594 " fill-opacity="1" fill-rule="nonzero"/><path fill="#ffb300" d="M 285.570312 195.332031 L 312.089844 217.523438 L 313.113281 216.308594 L 286.59375 194.113281 L 285.570312 195.332031 " fill-opacity="1" fill-rule="nonzero"/><path fill="#ffb300" d="M 277.773438 220.359375 L 287.996094 200.8125 L 286.582031 200.078125 L 276.363281 219.625 L 277.773438 220.359375 " fill-opacity="1" fill-rule="nonzero"/><path fill="#ffb300" d="M 304.46875 260.757812 L 247.304688 268.753906 L 247.523438 270.332031 L 304.691406 262.335938 L 304.46875 260.757812 " fill-opacity="1" fill-rule="nonzero"/><g clip-path="url(#595511bc85)"><path fill="#ffb300" d="M 252.894531 302.847656 L 263.519531 280.015625 L 262.078125 279.339844 L 251.453125 302.175781 L 252.894531 302.847656 " fill-opacity="1" fill-rule="nonzero"/></g><path fill="#ffb300" d="M 324.082031 293.835938 L 276.078125 287.15625 L 275.863281 288.738281 L 323.867188 295.414062 L 324.082031 293.835938 " fill-opacity="1" fill-rule="nonzero"/><path fill="#ffb300" d="M 394.027344 251.234375 L 413.160156 290.511719 L 414.59375 289.808594 L 395.464844 250.53125 L 394.027344 251.234375 " fill-opacity="1" fill-rule="nonzero"/><path fill="#ffb300" d="M 400.710938 227.546875 L 395.710938 266.957031 L 397.289062 267.164062 L 402.289062 227.75 L 400.710938 227.546875 " fill-opacity="1" fill-rule="nonzero"/><path fill="#ffb300" d="M 255.28125 251.40625 L 225.214844 214.378906 L 223.988281 215.378906 L 254.050781 252.40625 L 255.28125 251.40625 " fill-opacity="1" fill-rule="nonzero"/><path fill="#ffb300" d="M 318.386719 158.738281 L 319.054688 190.035156 L 320.636719 189.996094 L 319.988281 158.703125 L 318.386719 158.738281 " fill-opacity="1" fill-rule="nonzero"/><path fill="#ffb300" d="M 517.28125 246.1875 L 500.617188 250.644531 L 501.027344 252.183594 L 517.691406 247.726562 L 517.28125 246.1875 " fill-opacity="1" fill-rule="nonzero"/><path fill="#ffb300" d="M 521.601562 208.40625 L 565.496094 198.382812 L 565.140625 196.828125 L 521.246094 206.847656 L 521.601562 208.40625 " fill-opacity="1" fill-rule="nonzero"/><path fill="#ffb300" d="M 528.339844 261.488281 L 557.488281 208.746094 L 556.085938 207.980469 L 526.945312 260.71875 L 528.339844 261.488281 " fill-opacity="1" fill-rule="nonzero"/><g clip-path="url(#4a912f15c3)"><path fill="#ffb300" d="M 571.871094 190.449219 L 588.699219 223.609375 L 590.117188 222.890625 L 573.289062 189.734375 L 571.871094 190.449219 " fill-opacity="1" fill-rule="nonzero"/></g><path fill="#ffb300" d="M 540.078125 218.085938 L 500.71875 235.671875 L 501.367188 237.121094 L 540.726562 219.539062 L 540.078125 218.085938 " fill-opacity="1" fill-rule="nonzero"/><g clip-path="url(#d7087c74b2)"><path fill="#ffb300" d="M 606.359375 243.777344 L 525.933594 249.085938 L 526.03125 250.675781 L 606.460938 245.367188 L 606.359375 243.777344 " fill-opacity="1" fill-rule="nonzero"/></g><g clip-path="url(#9edf6eab47)"><path fill="#ffb300" d="M 590.09375 236.085938 L 567.917969 268.714844 L 569.238281 269.609375 L 591.417969 236.980469 L 590.09375 236.085938 " fill-opacity="1" fill-rule="nonzero"/></g><path fill="#ffb300" d="M 557.492188 235.476562 L 563.46875 293.53125 L 565.046875 293.375 L 559.074219 235.324219 L 557.492188 235.476562 " fill-opacity="1" fill-rule="nonzero"/><g clip-path="url(#ab1a33673a)"><path fill="#ffb300" d="M 501.855469 322 L 481.734375 257.808594 L 480.207031 258.289062 L 500.328125 322.476562 L 501.855469 322 " fill-opacity="1" fill-rule="nonzero"/></g><g clip-path="url(#5d92916c9d)"><path fill="#ffb300" d="M 524.53125 340.8125 L 533.277344 266.429688 L 531.699219 266.25 L 522.949219 340.632812 L 524.53125 340.8125 " fill-opacity="1" fill-rule="nonzero"/></g><path fill="#ffb300" d="M 497.125 269.480469 L 439.953125 265.320312 L 439.839844 266.902344 L 497.007812 271.066406 L 497.125 269.480469 " fill-opacity="1" fill-rule="nonzero"/><path fill="#ffb300" d="M 509.882812 286.496094 L 476.46875 287.121094 L 476.503906 288.714844 L 509.910156 288.09375 L 509.882812 286.496094 " fill-opacity="1" fill-rule="nonzero"/><path fill="#ffb300" d="M 517.328125 279.152344 L 491.585938 242.457031 L 490.285156 243.367188 L 516.03125 280.0625 L 517.328125 279.152344 " fill-opacity="1" fill-rule="nonzero"/><path fill="#ffb300" d="M 426.1875 249.214844 L 429.6875 177.152344 L 428.101562 177.074219 L 424.59375 249.144531 L 426.1875 249.214844 " fill-opacity="1" fill-rule="nonzero"/><path fill="#ffb300" d="M 446.742188 258.207031 L 464.886719 201.753906 L 463.371094 201.269531 L 445.230469 257.71875 L 446.742188 258.207031 " fill-opacity="1" fill-rule="nonzero"/><path fill="#ffb300" d="M 519.105469 217.808594 L 484.96875 216.785156 L 484.921875 218.371094 L 519.0625 219.390625 L 519.105469 217.808594 " fill-opacity="1" fill-rule="nonzero"/><path fill="#ffb300" d="M 478.464844 165.0625 L 536.625 170.128906 L 536.769531 168.542969 L 478.605469 163.476562 L 478.464844 165.0625 " fill-opacity="1" fill-rule="nonzero"/><path fill="#ffb300" d="M 471.261719 169.230469 L 472.042969 243.210938 L 473.628906 243.195312 L 472.851562 169.207031 L 471.261719 169.230469 " fill-opacity="1" fill-rule="nonzero"/><path fill="#ffb300" d="M 540.679688 291.464844 L 551.933594 267.792969 L 550.496094 267.101562 L 539.238281 290.78125 L 540.679688 291.464844 " fill-opacity="1" fill-rule="nonzero"/><path fill="#ffb300" d="M 530.980469 243.015625 L 500.695312 211.566406 L 499.550781 212.671875 L 529.832031 244.121094 L 530.980469 243.015625 " fill-opacity="1" fill-rule="nonzero"/><path fill="#ffb300" d="M 441.621094 157.539062 L 481.6875 192.90625 L 482.746094 191.707031 L 442.683594 156.34375 L 441.621094 157.539062 " fill-opacity="1" fill-rule="nonzero"/><path fill="#ffb300" d="M 580.691406 183.082031 L 574.9375 243.867188 L 576.519531 244.027344 L 582.269531 183.234375 L 580.691406 183.082031 " fill-opacity="1" fill-rule="nonzero"/><path fill="#ffb300" d="M 511.0625 175.492188 L 515.195312 209.824219 L 516.765625 209.640625 L 512.644531 175.304688 L 511.0625 175.492188 " fill-opacity="1" fill-rule="nonzero"/><path fill="#ffb300" d="M 488.242188 188.386719 L 509.078125 181.144531 L 508.550781 179.644531 L 487.714844 186.890625 L 488.242188 188.386719 " fill-opacity="1" fill-rule="nonzero"/><path fill="#ffb300" d="M 480.027344 236.109375 L 432.894531 202.785156 L 431.976562 204.085938 L 479.109375 237.410156 L 480.027344 236.109375 " fill-opacity="1" fill-rule="nonzero"/><path fill="#ffb300" d="M 413.625 231.457031 L 437.003906 222.097656 L 436.410156 220.617188 L 413.03125 229.980469 L 413.625 231.457031 " fill-opacity="1" fill-rule="nonzero"/><path fill="#ffb300" d="M 471.667969 273.644531 L 441.257812 235.902344 L 440.019531 236.90625 L 470.429688 274.648438 L 471.667969 273.644531 " fill-opacity="1" fill-rule="nonzero"/><g clip-path="url(#c114454942)"><path fill="#ffb300" d="M 551.8125 290.503906 L 538.855469 332.226562 L 540.378906 332.699219 L 553.339844 290.976562 L 551.8125 290.503906 " fill-opacity="1" fill-rule="nonzero"/></g><g clip-path="url(#caf72c078e)"><path fill="#ffb300" d="M 572.90625 277.816406 L 542.273438 303.113281 L 543.28125 304.34375 L 573.914062 279.046875 L 572.90625 277.816406 " fill-opacity="1" fill-rule="nonzero"/></g><path fill="#ffb300" d="M 413.503906 194.363281 L 465.414062 157.644531 L 464.496094 156.335938 L 412.578125 193.058594 L 413.503906 194.363281 " fill-opacity="1" fill-rule="nonzero"/><path fill="#ffb300" d="M 560.039062 171.300781 L 539.089844 194.558594 L 540.273438 195.617188 L 561.230469 172.371094 L 560.039062 171.300781 " fill-opacity="1" fill-rule="nonzero"/></svg>